<?xml version="1.0" encoding="UTF-8"?>
<svg width="310px" height="443px" viewBox="0 0 310 443" version="1.1" xmlns="http://www.w3.org/2000/svg" xmlns:xlink="http://www.w3.org/1999/xlink">
    <title>Artboard</title>
    <defs>
        <linearGradient x1="50%" y1="0%" x2="50%" y2="100%" id="linearGradient-1">
            <stop stop-color="#B0032B" offset="0%"></stop>
            <stop stop-color="#780113" offset="100%"></stop>
        </linearGradient>
        <linearGradient x1="50%" y1="0%" x2="50%" y2="100%" id="linearGradient-2">
            <stop stop-color="#436A07" offset="0%"></stop>
            <stop stop-color="#203903" offset="100%"></stop>
        </linearGradient>
    </defs>
    <g id="Artboard" stroke="none" stroke-width="1" fill="none" fill-rule="evenodd">
        <g id="nela" transform="translate(2.000000, 2.000000)">
            <g id="Group" transform="translate(25.391536, 50.014361)" fill-rule="nonzero">
                <rect id="Rectangle" stroke="#979797" fill="url(#linearGradient-1)" x="0" y="0" width="263" height="155"></rect>
                <path d="M81.962,73.316 L71.218,73.316 C70.062,71.004 68.838,69.032 66.866,66.04 L49.322,39.588 C48.03,37.548 46.33,34.624 44.698,31.428 C44.766,32.38 44.766,32.38 44.97,34.896 C45.038,36.188 45.174,39.248 45.174,40.812 L45.174,63.116 C45.174,67.672 45.378,70.868 45.718,73.316 L35.79,73.316 C36.13,71.072 36.334,67.672 36.334,63.048 L36.334,27.96 C36.334,24.424 36.198,21.976 35.79,19.188 L46.398,19.188 C47.01,20.888 48.234,22.928 50.546,26.396 L67.75,52.304 C69.382,54.752 71.558,58.288 73.054,61.008 C72.782,58.356 72.578,54.276 72.578,51.42 L72.578,28.572 C72.578,24.56 72.442,21.772 72.034,19.188 L81.962,19.188 C81.554,21.908 81.418,24.424 81.418,28.572 L81.418,64.544 C81.418,68.352 81.554,70.936 81.962,73.316 Z M130.242,64.748 L130.242,73.792 C127.794,73.452 125.618,73.316 121.47,73.316 L100.254,73.316 C96.174,73.316 94.338,73.384 91.618,73.52 C92.026,70.8 92.162,68.556 92.162,64.544 L92.162,27.756 C92.162,24.22 92.026,22.18 91.618,18.984 C94.338,19.12 96.106,19.188 100.254,19.188 L120.79,19.188 C124.19,19.188 126.434,19.052 129.562,18.712 L129.562,27.688 C126.978,27.348 124.802,27.212 120.79,27.212 L101.206,27.212 L101.206,41.22 L117.73,41.22 C121.266,41.22 123.578,41.084 126.57,40.744 L126.57,49.652 C123.782,49.244 121.946,49.176 117.73,49.176 L101.138,49.176 L101.138,65.224 L121.538,65.224 C125.346,65.224 127.318,65.088 130.242,64.748 Z M176.618,64.612 L176.618,73.792 C174.17,73.452 171.79,73.316 166.962,73.316 L146.834,73.316 C143.026,73.316 140.646,73.384 138.198,73.52 C138.606,71.004 138.742,68.488 138.742,64.544 L138.742,29.252 C138.742,24.56 138.606,22.112 138.198,19.188 L148.466,19.188 C148.058,21.976 147.922,24.22 147.922,29.184 L147.922,65.088 L166.962,65.088 C171.586,65.088 173.762,64.952 176.618,64.612 Z M231.29,73.316 L220.138,73.316 C219.73,71.072 218.982,68.148 218.234,66.176 L215.514,58.764 L193.754,58.764 L191.034,66.176 C189.81,69.44 189.538,70.46 188.994,73.316 L177.842,73.316 C178.862,71.48 180.222,68.42 181.446,65.292 L196.406,26.056 C197.698,22.656 198.242,20.956 198.582,19.188 L210.414,19.188 C210.754,20.82 211.162,21.908 212.726,26.056 L227.822,65.292 C229.522,69.644 230.338,71.548 231.29,73.316 Z M213.066,50.944 L205.79,30.816 C205.518,30.068 205.314,29.252 204.566,27.008 C203.478,30.204 203.478,30.204 203.274,30.816 L196.202,50.944 L213.066,50.944 Z" id="NELA" fill="#FFFFFF"></path>
            </g>
            <g id="ppossum" transform="translate(25.391536, 142.014361)" fill-rule="nonzero">
                <g id="Group-3">
                    <rect id="Rectangle" stroke="#979797" fill="url(#linearGradient-2)" x="0" y="0" width="263" height="203"></rect>
                    <path d="M120.695207,32.9856385 L115.608464,32.9856385 C115.814683,31.6840115 115.883423,30.5450878 115.883423,28.7878913 L115.883423,11.1833857 C115.883423,9.62143327 115.814683,8.44996894 115.608464,6.98563853 C117.086369,7.05071988 118.151835,7.08326055 119.973439,7.08326055 L127.156745,7.08326055 C130.490624,7.08326055 132.827776,7.8316961 134.477531,9.39364854 C135.886696,10.6952756 136.608464,12.6477161 136.608464,14.9906448 C136.608464,17.4637361 135.817956,19.481258 134.305681,20.9781291 C132.621557,22.5726223 130.284405,23.3210578 126.984896,23.3210578 L120.420248,23.3210578 L120.420248,28.7553507 C120.420248,30.5125472 120.488987,31.7490928 120.695207,32.9856385 Z M119.608464,19.9856385 L125.917773,19.9856385 C128.956812,19.9856385 130.608464,18.3462333 130.608464,15.4019954 C130.608464,14.0637054 130.2451,12.9596162 129.518374,12.1900995 C128.758614,11.3536683 127.668524,10.9856385 125.917773,10.9856385 L119.608464,10.9856385 L119.608464,19.9856385 Z M138.608464,25.9856385 L138.608464,20.9856385 C139.620092,21.1360145 140.492185,21.2112024 141.887533,21.2112024 L147.29451,21.2112024 C148.724743,21.2112024 149.596836,21.1360145 150.608464,20.9856385 L150.608464,25.9856385 C149.457301,25.7976686 148.724743,25.7600746 147.29451,25.7600746 L141.887533,25.7600746 C140.527068,25.7600746 139.759626,25.7976686 138.608464,25.9856385 Z M58.6952067,66.9856385 L53.6084636,66.9856385 C53.814683,65.6840115 53.8834227,64.5450878 53.8834227,62.7878913 L53.8834227,45.1833857 C53.8834227,43.6214333 53.814683,42.4499689 53.6084636,40.9856385 C55.0863687,41.0507199 56.1518352,41.0832606 57.9734391,41.0832606 L65.1567451,41.0832606 C68.490624,41.0832606 70.8277762,41.8316961 72.4775307,43.3936485 C73.886696,44.6952756 74.6084636,46.6477161 74.6084636,48.9906448 C74.6084636,51.4637361 73.8179563,53.481258 72.3056813,54.9781291 C70.6215569,56.5726223 68.2844047,57.3210578 64.9848957,57.3210578 L58.4202476,57.3210578 L58.4202476,62.7553507 C58.4202476,64.5125472 58.4889874,65.7490928 58.6952067,66.9856385 Z M58.6084636,52.9856385 L64.9177729,52.9856385 C67.956812,52.9856385 69.6084636,51.3462333 69.6084636,48.4019954 C69.6084636,47.0637054 69.2451003,45.9596162 68.5183735,45.1900995 C67.7586138,44.3536683 66.6685237,43.9856385 64.9177729,43.9856385 L58.6084636,43.9856385 L58.6084636,52.9856385 Z M89.0582628,39.9856385 C92.7396551,39.9856385 95.5843673,41.0664588 97.860137,43.3632019 C100.303243,45.8288231 101.608464,49.5103671 101.608464,53.9011994 C101.608464,62.4464347 96.6887849,67.9856385 89.09173,67.9856385 C81.4946752,67.9856385 76.6084636,62.4802103 76.6084636,53.9011994 C76.6084636,49.5441427 77.9471517,45.7950475 80.4237247,43.3632019 C82.7329616,41.0664588 85.5107394,39.9856385 89.0582628,39.9856385 Z M89.1725662,63.9856385 C93.7558995,63.9856385 96.6084636,60.1342872 96.6084636,53.918071 C96.6084636,50.5059088 95.7110277,47.7694223 94.0764124,46.0464493 C92.7623098,44.695098 91.0635918,43.9856385 89.1405149,43.9856385 C84.5251303,43.9856385 81.6084636,47.8369899 81.6084636,53.9518547 C81.6084636,57.3302331 82.5379508,60.168071 84.2046175,61.9248277 C85.51872,63.2761791 87.217438,63.9856385 89.1725662,63.9856385 Z M104.608464,59.5856385 L109.493763,59.0796144 C109.629465,60.5976867 109.833019,61.2723855 110.443682,62.0482891 C111.427527,63.3302168 113.191662,64.0386506 115.396832,64.0386506 C118.789401,64.0386506 120.824942,62.5205783 120.824942,59.9904578 C120.824942,58.6073253 120.180354,57.4603373 119.128658,56.8868433 C118.110887,56.3470843 117.907333,56.3133494 113.225588,55.2338313 C110.681162,54.6603373 109.324134,54.1205783 108.102809,53.176 C106.372599,51.8266024 105.490531,49.9711807 105.490531,47.7109397 C105.490531,43.0217831 109.290208,39.9856385 115.125426,39.9856385 C118.992955,39.9856385 121.910564,41.1663614 123.572922,43.3928674 C124.421065,44.5061205 124.828173,45.5181686 125.235281,47.3061205 L120.383908,47.8796144 C120.180354,46.7326265 119.942874,46.1591325 119.366137,45.4844337 C118.484069,44.4386506 116.991339,43.8651566 115.125426,43.8651566 C112.173892,43.8651566 110.172276,45.3494939 110.172276,47.542265 C110.172276,48.9591325 110.918641,49.9374458 112.479223,50.6121445 C113.225588,50.915759 113.496994,50.9832289 117.262745,51.8266024 C119.942874,52.4000964 121.571307,53.0410602 122.792632,53.8844337 C124.726396,55.3013012 125.608464,57.1567229 125.608464,59.6868433 C125.608464,62.0820241 124.862099,64.0386506 123.471145,65.4217831 C121.673084,67.142265 118.992955,67.9856385 115.362906,67.9856385 C112.581,67.9856385 109.866945,67.3109397 108.238512,66.2314217 C106.881485,65.3205783 105.89764,64.0386506 105.253052,62.3856385 C104.947721,61.6097349 104.812018,60.9687711 104.608464,59.5856385 Z M129.608464,59.5856385 L134.493763,59.0796144 C134.629465,60.5976867 134.833019,61.2723855 135.443682,62.0482891 C136.427527,63.3302168 138.191662,64.0386506 140.396832,64.0386506 C143.789401,64.0386506 145.824942,62.5205783 145.824942,59.9904578 C145.824942,58.6073253 145.180354,57.4603373 144.128658,56.8868433 C143.110887,56.3470843 142.907333,56.3133494 138.225588,55.2338313 C135.681162,54.6603373 134.324134,54.1205783 133.102809,53.176 C131.372599,51.8266024 130.490531,49.9711807 130.490531,47.7109397 C130.490531,43.0217831 134.290208,39.9856385 140.125426,39.9856385 C143.992955,39.9856385 146.910564,41.1663614 148.572922,43.3928674 C149.421065,44.5061205 149.828173,45.5181686 150.235281,47.3061205 L145.383908,47.8796144 C145.180354,46.7326265 144.942874,46.1591325 144.366137,45.4844337 C143.484069,44.4386506 141.991339,43.8651566 140.125426,43.8651566 C137.173892,43.8651566 135.172276,45.3494939 135.172276,47.542265 C135.172276,48.9591325 135.918641,49.9374458 137.479223,50.6121445 C138.225588,50.915759 138.496994,50.9832289 142.262745,51.8266024 C144.942874,52.4000964 146.571307,53.0410602 147.792632,53.8844337 C149.726396,55.3013012 150.608464,57.1567229 150.608464,59.6868433 C150.608464,62.0820241 149.862099,64.0386506 148.471145,65.4217831 C146.673084,67.142265 143.992955,67.9856385 140.362906,67.9856385 C137.581,67.9856385 134.866945,67.3109397 133.238512,66.2314217 C131.881485,65.3205783 130.89764,64.0386506 130.253052,62.3856385 C129.947721,61.6097349 129.812018,60.9687711 129.608464,59.5856385 Z M171.641797,40.9856385 L176.608464,40.9856385 C176.408464,42.2129113 176.341797,43.4070144 176.341797,45.496695 L176.341797,57.2718793 C176.341797,64.1379727 172.241797,67.9856385 164.97513,67.9856385 C161.27513,67.9856385 158.208464,66.8578744 156.37513,64.8677024 C154.67513,63.0433781 153.87513,60.5556631 153.87513,57.2387098 L153.87513,45.5298646 C153.87513,43.4733535 153.808464,42.1797417 153.608464,40.9856385 L158.57513,40.9856385 C158.37513,42.1134027 158.308464,43.3738449 158.308464,45.5298646 L158.308464,57.2387098 C158.308464,61.7165968 160.641797,64.0716336 165.141797,64.0716336 C169.608464,64.0716336 171.908464,61.7165968 171.908464,57.2055402 L171.908464,45.5298646 C171.908464,43.4070144 171.841797,42.2129113 171.641797,40.9856385 Z M197.546925,66.9856385 L193.636866,66.9856385 C193.471186,65.9404124 192.941008,64.4052365 192.178878,62.5760908 L187.40728,51.3725732 C186.777694,49.902724 186.47947,49.0208144 185.717339,46.3750858 C185.849884,48.1062415 185.982428,50.7846335 185.982428,51.5032265 L185.982428,62.2167943 C185.982428,64.4705631 186.0487,65.7117692 186.247517,66.9856385 L181.608464,66.9856385 C181.80728,65.6791059 181.873552,64.4052365 181.873552,62.2167943 L181.873552,45.8198094 C181.873552,43.6966938 181.80728,42.3248345 181.608464,40.9856385 L187.672369,40.9856385 C187.904322,42.1288546 188.335091,43.5007139 188.898404,44.8725732 L195.625032,61.0735782 L202.318523,44.8725732 C202.981245,43.2720707 203.27947,42.2268446 203.511422,40.9856385 L209.608464,40.9856385 C209.409647,42.5534777 209.343375,43.6313672 209.343375,45.8198094 L209.343375,62.2167943 C209.343375,64.6012164 209.409647,65.7770958 209.608464,66.9856385 L204.96941,66.9856385 C205.168227,65.6464425 205.234499,64.4705631 205.234499,62.2167943 L205.234499,51.3725732 C205.367044,48.5308647 205.466452,46.8650355 205.499588,46.3750858 C205.068819,48.1389049 204.439233,49.9680506 203.975328,51.14393 L199.004913,62.6414174 C198.342191,64.1765933 197.745742,66.005739 197.546925,66.9856385 Z" id="P--POSSUM" fill="#FFFFFF"></path>
                </g>
            </g>
            <path d="M268.514231,439.028722 L37.2688409,439.028722 C16.2431969,439.028722 0,422.799393 0,401.805713 L0,37.2230096 C0,16.2293299 16.2431969,0 37.2688409,0 L268.514231,0 C289.539876,0 305.783072,16.2293299 305.783072,37.2230096 L305.783072,401.805713 C305.783072,422.799393 289.539876,439.028722 268.514231,439.028722 Z M46.8215041,52.4933614 L46.8215041,219.514361 L266.606145,219.514361 L266.606145,52.4933614 L46.8215041,52.4933614 Z" id="Combined-Shape" stroke="#000000" stroke-width="3.125" fill="#FFFFFF" fill-rule="nonzero"></path>
            <line x1="47.7755473" y1="263.324934" x2="93.6430082" y2="263.324934" id="Stroke-3" stroke="#000000" stroke-width="3.125"></line>
            <line x1="129.957806" y1="263.324934" x2="175.825266" y2="263.324934" id="Stroke-4" stroke="#000000" stroke-width="3.125"></line>
            <line x1="212.140064" y1="263.324934" x2="258.007525" y2="263.324934" id="Stroke-5" stroke="#000000" stroke-width="3.125"></line>
            <line x1="47.7755473" y1="304.214802" x2="93.6430082" y2="304.214802" id="Stroke-6" stroke="#000000" stroke-width="3.125"></line>
            <line x1="129.957806" y1="304.214802" x2="175.825266" y2="304.214802" id="Stroke-7" stroke="#000000" stroke-width="3.125"></line>
            <line x1="212.140064" y1="304.214802" x2="258.007525" y2="304.214802" id="Stroke-8" stroke="#000000" stroke-width="3.125"></line>
            <line x1="47.7755473" y1="345.104669" x2="93.6430082" y2="345.104669" id="Stroke-9" stroke="#000000" stroke-width="3.125"></line>
            <line x1="129.957806" y1="345.104669" x2="175.825266" y2="345.104669" id="Stroke-10" stroke="#000000" stroke-width="3.125"></line>
            <line x1="212.140064" y1="345.104669" x2="258.007525" y2="345.104669" id="Stroke-11" stroke="#000000" stroke-width="3.125"></line>
            <line x1="47.7755473" y1="385.994537" x2="93.6430082" y2="385.994537" id="Stroke-12" stroke="#000000" stroke-width="3.125"></line>
            <line x1="129.957806" y1="385.994537" x2="175.825266" y2="385.994537" id="Stroke-13" stroke="#000000" stroke-width="3.125"></line>
            <line x1="212.140064" y1="385.994537" x2="258.007525" y2="385.994537" id="Stroke-14" stroke="#000000" stroke-width="3.125"></line>
        </g>
    </g>
</svg>