<?xml version="1.0" encoding="UTF-8"?>
<svg width="492px" height="492px" viewBox="0 0 492 492" version="1.1" xmlns="http://www.w3.org/2000/svg" xmlns:xlink="http://www.w3.org/1999/xlink">
    <!-- Generator: Sketch 52.4 (67378) - http://www.bohemiancoding.com/sketch -->
    <title>NELA Copy 2</title>
    <desc>Created with Sketch.</desc>
    <defs>
        <linearGradient x1="50%" y1="0%" x2="50%" y2="100%" id="linearGradient-1">
            <stop stop-color="#B0032B" offset="0%"></stop>
            <stop stop-color="#780113" offset="100%"></stop>
        </linearGradient>
    </defs>
    <g id="NELA-Copy-2" stroke="none" stroke-width="1" fill="none" fill-rule="evenodd">
        <g id="Group-2" transform="translate(93.000000, 26.000000)">
            <g id="Page-1">
                <g id="Group" transform="translate(25.000000, 42.000000)">
                    <rect id="Rectangle" stroke="#979797" fill="url(#linearGradient-1)" x="0.5" y="0.5" width="263" height="203"></rect>
                    <path d="M82.462,121.816 L71.718,121.816 C70.562,119.504 69.338,117.532 67.366,114.54 L49.822,88.088 C48.53,86.048 46.83,83.124 45.198,79.928 C45.266,80.88 45.266,80.88 45.47,83.396 C45.538,84.688 45.674,87.748 45.674,89.312 L45.674,111.616 C45.674,116.172 45.878,119.368 46.218,121.816 L36.29,121.816 C36.63,119.572 36.834,116.172 36.834,111.548 L36.834,76.46 C36.834,72.924 36.698,70.476 36.29,67.688 L46.898,67.688 C47.51,69.388 48.734,71.428 51.046,74.896 L68.25,100.804 C69.882,103.252 72.058,106.788 73.554,109.508 C73.282,106.856 73.078,102.776 73.078,99.92 L73.078,77.072 C73.078,73.06 72.942,70.272 72.534,67.688 L82.462,67.688 C82.054,70.408 81.918,72.924 81.918,77.072 L81.918,113.044 C81.918,116.852 82.054,119.436 82.462,121.816 Z M130.742,113.248 L130.742,122.292 C128.294,121.952 126.118,121.816 121.97,121.816 L100.754,121.816 C96.674,121.816 94.838,121.884 92.118,122.02 C92.526,119.3 92.662,117.056 92.662,113.044 L92.662,76.256 C92.662,72.72 92.526,70.68 92.118,67.484 C94.838,67.62 96.606,67.688 100.754,67.688 L121.29,67.688 C124.69,67.688 126.934,67.552 130.062,67.212 L130.062,76.188 C127.478,75.848 125.302,75.712 121.29,75.712 L101.706,75.712 L101.706,89.72 L118.23,89.72 C121.766,89.72 124.078,89.584 127.07,89.244 L127.07,98.152 C124.282,97.744 122.446,97.676 118.23,97.676 L101.638,97.676 L101.638,113.724 L122.038,113.724 C125.846,113.724 127.818,113.588 130.742,113.248 Z M177.118,113.112 L177.118,122.292 C174.67,121.952 172.29,121.816 167.462,121.816 L147.334,121.816 C143.526,121.816 141.146,121.884 138.698,122.02 C139.106,119.504 139.242,116.988 139.242,113.044 L139.242,77.752 C139.242,73.06 139.106,70.612 138.698,67.688 L148.966,67.688 C148.558,70.476 148.422,72.72 148.422,77.684 L148.422,113.588 L167.462,113.588 C172.086,113.588 174.262,113.452 177.118,113.112 Z M231.79,121.816 L220.638,121.816 C220.23,119.572 219.482,116.648 218.734,114.676 L216.014,107.264 L194.254,107.264 L191.534,114.676 C190.31,117.94 190.038,118.96 189.494,121.816 L178.342,121.816 C179.362,119.98 180.722,116.92 181.946,113.792 L196.906,74.556 C198.198,71.156 198.742,69.456 199.082,67.688 L210.914,67.688 C211.254,69.32 211.662,70.408 213.226,74.556 L228.322,113.792 C230.022,118.144 230.838,120.048 231.79,121.816 Z M213.566,99.444 L206.29,79.316 C206.018,78.568 205.814,77.752 205.066,75.508 C203.978,78.704 203.978,78.704 203.774,79.316 L196.702,99.444 L213.566,99.444 Z" id="NELA" fill="#FFFFFF"></path>
                </g>
                <path d="M268.622695,439.514361 L37.3773045,439.514361 C16.3516605,439.514361 0.108463639,423.285032 0.108463639,402.291352 L0.108463639,37.7086481 C0.108463639,16.7149684 16.3516605,0.485638525 37.3773045,0.485638525 L268.622695,0.485638525 C289.64834,0.485638525 305.891536,16.7149684 305.891536,37.7086481 L305.891536,402.291352 C305.891536,423.285032 289.64834,439.514361 268.622695,439.514361 Z M46.9299677,52.9789999 L46.9299677,220 L266.714609,220 L266.714609,52.9789999 L46.9299677,52.9789999 Z" id="Combined-Shape" stroke="#000000" stroke-width="3.125" fill="#FFFFFF"></path>
                <path d="M47.8840109,263.810573 L93.7514718,263.810573" id="Stroke-3" stroke="#000000" stroke-width="3.125"></path>
                <path d="M130.06627,263.810573 L175.93373,263.810573" id="Stroke-4" stroke="#000000" stroke-width="3.125"></path>
                <path d="M212.248528,263.810573 L258.115989,263.810573" id="Stroke-5" stroke="#000000" stroke-width="3.125"></path>
                <path d="M47.8840109,304.700441 L93.7514718,304.700441" id="Stroke-6" stroke="#000000" stroke-width="3.125"></path>
                <path d="M130.06627,304.700441 L175.93373,304.700441" id="Stroke-7" stroke="#000000" stroke-width="3.125"></path>
                <path d="M212.248528,304.700441 L258.115989,304.700441" id="Stroke-8" stroke="#000000" stroke-width="3.125"></path>
                <path d="M47.8840109,345.590308 L93.7514718,345.590308" id="Stroke-9" stroke="#000000" stroke-width="3.125"></path>
                <path d="M130.06627,345.590308 L175.93373,345.590308" id="Stroke-10" stroke="#000000" stroke-width="3.125"></path>
                <path d="M212.248528,345.590308 L258.115989,345.590308" id="Stroke-11" stroke="#000000" stroke-width="3.125"></path>
                <path d="M47.8840109,386.480176 L93.7514718,386.480176" id="Stroke-12" stroke="#000000" stroke-width="3.125"></path>
                <path d="M130.06627,386.480176 L175.93373,386.480176" id="Stroke-13" stroke="#000000" stroke-width="3.125"></path>
                <path d="M212.248528,386.480176 L258.115989,386.480176" id="Stroke-14" stroke="#000000" stroke-width="3.125"></path>
            </g>
        </g>
    </g>
</svg>