<?xml version="1.0" encoding="UTF-8"?>
<svg width="492px" height="492px" viewBox="0 0 492 492" version="1.1" xmlns="http://www.w3.org/2000/svg" xmlns:xlink="http://www.w3.org/1999/xlink">
    <!-- Generator: Sketch 52.4 (67378) - http://www.bohemiancoding.com/sketch -->
    <title>NELA Copy 3</title>
    <desc>Created with Sketch.</desc>
    <defs>
        <linearGradient x1="50%" y1="0%" x2="50%" y2="100%" id="linearGradient-1">
            <stop stop-color="#436A07" offset="0%"></stop>
            <stop stop-color="#203903" offset="100%"></stop>
        </linearGradient>
    </defs>
    <g id="NELA-Copy-3" stroke="none" stroke-width="1" fill="none" fill-rule="evenodd">
        <g id="Group-2" transform="translate(93.000000, 26.000000)">
            <g id="Group-3" transform="translate(34.000000, 27.000000)">
                <rect id="Rectangle" stroke="#979797" fill="url(#linearGradient-1)" x="0.5" y="0.5" width="263" height="203"></rect>
                <path d="M106.5875,100.54 L99.9275,100.54 C100.1975,98.74 100.2875,97.165 100.2875,94.735 L100.2875,70.39 C100.2875,68.23 100.1975,66.61 99.9275,64.585 C101.8625,64.675 103.2575,64.72 105.6425,64.72 L115.0475,64.72 C119.4125,64.72 122.4725,65.755 124.6325,67.915 C126.4775,69.715 127.4225,72.415 127.4225,75.655 C127.4225,79.075 126.3875,81.865 124.4075,83.935 C122.2025,86.14 119.1425,87.175 114.8225,87.175 L106.2275,87.175 L106.2275,94.69 C106.2275,97.12 106.3175,98.83 106.5875,100.54 Z M106.2275,82 L114.8225,82 C118.9625,82 121.2125,79.795 121.2125,75.835 C121.2125,74.035 120.7175,72.55 119.7275,71.515 C118.6925,70.39 117.2075,69.895 114.8225,69.895 L106.2275,69.895 L106.2275,82 Z M130.2575,89.875 L130.2575,83.89 C131.5625,84.07 132.6875,84.16 134.4875,84.16 L141.4625,84.16 C143.3075,84.16 144.4325,84.07 145.7375,83.89 L145.7375,89.875 C144.2525,89.65 143.3075,89.605 141.4625,89.605 L134.4875,89.605 C132.7325,89.605 131.7425,89.65 130.2575,89.875 Z M23.9675,145.54 L17.3075,145.54 C17.5775,143.74 17.6675,142.165 17.6675,139.735 L17.6675,115.39 C17.6675,113.23 17.5775,111.61 17.3075,109.585 C19.2425,109.675 20.6375,109.72 23.0225,109.72 L32.4275,109.72 C36.7925,109.72 39.8525,110.755 42.0125,112.915 C43.8575,114.715 44.8025,117.415 44.8025,120.655 C44.8025,124.075 43.7675,126.865 41.7875,128.935 C39.5825,131.14 36.5225,132.175 32.2025,132.175 L23.6075,132.175 L23.6075,139.69 C23.6075,142.12 23.6975,143.83 23.9675,145.54 Z M23.6075,127 L32.2025,127 C36.3425,127 38.5925,124.795 38.5925,120.835 C38.5925,119.035 38.0975,117.55 37.1075,116.515 C36.0725,115.39 34.5875,114.895 32.2025,114.895 L23.6075,114.895 L23.6075,127 Z M64.8725,109 C69.8225,109 73.6475,110.44 76.7075,113.5 C79.9925,116.785 81.7475,121.69 81.7475,127.54 C81.7475,138.925 75.1325,146.305 64.9175,146.305 C54.7025,146.305 48.1325,138.97 48.1325,127.54 C48.1325,121.735 49.9325,116.74 53.2625,113.5 C56.3675,110.44 60.1025,109 64.8725,109 Z M65.0075,140.95 C71.4425,140.95 75.4475,135.82 75.4475,127.54 C75.4475,122.995 74.1875,119.35 71.8925,117.055 C70.0475,115.255 67.6625,114.31 64.9625,114.31 C58.4825,114.31 54.3875,119.44 54.3875,127.585 C54.3875,132.085 55.6925,135.865 58.0325,138.205 C59.8775,140.005 62.2625,140.95 65.0075,140.95 Z M85.8425,135.055 L92.3225,134.38 C92.5025,136.405 92.7725,137.305 93.5825,138.34 C94.8875,140.05 97.2275,140.995 100.1525,140.995 C104.6525,140.995 107.3525,138.97 107.3525,135.595 C107.3525,133.75 106.4975,132.22 105.1025,131.455 C103.7525,130.735 103.4825,130.69 97.2725,129.25 C93.8975,128.485 92.0975,127.765 90.4775,126.505 C88.1825,124.705 87.0125,122.23 87.0125,119.215 C87.0125,112.96 92.0525,108.91 99.7925,108.91 C104.9225,108.91 108.7925,110.485 110.9975,113.455 C112.1225,114.94 112.6625,116.29 113.2025,118.675 L106.7675,119.44 C106.4975,117.91 106.1825,117.145 105.4175,116.245 C104.2475,114.85 102.2675,114.085 99.7925,114.085 C95.8775,114.085 93.2225,116.065 93.2225,118.99 C93.2225,120.88 94.2125,122.185 96.2825,123.085 C97.2725,123.49 97.6325,123.58 102.6275,124.705 C106.1825,125.47 108.3425,126.325 109.9625,127.45 C112.5275,129.34 113.6975,131.815 113.6975,135.19 C113.6975,138.385 112.7075,140.995 110.8625,142.84 C108.4775,145.135 104.9225,146.26 100.1075,146.26 C96.4175,146.26 92.8175,145.36 90.6575,143.92 C88.8575,142.705 87.5525,140.995 86.6975,138.79 C86.2925,137.755 86.1125,136.9 85.8425,135.055 Z M118.0175,135.055 L124.4975,134.38 C124.6775,136.405 124.9475,137.305 125.7575,138.34 C127.0625,140.05 129.4025,140.995 132.3275,140.995 C136.8275,140.995 139.5275,138.97 139.5275,135.595 C139.5275,133.75 138.6725,132.22 137.2775,131.455 C135.9275,130.735 135.6575,130.69 129.4475,129.25 C126.0725,128.485 124.2725,127.765 122.6525,126.505 C120.3575,124.705 119.1875,122.23 119.1875,119.215 C119.1875,112.96 124.2275,108.91 131.9675,108.91 C137.0975,108.91 140.9675,110.485 143.1725,113.455 C144.2975,114.94 144.8375,116.29 145.3775,118.675 L138.9425,119.44 C138.6725,117.91 138.3575,117.145 137.5925,116.245 C136.4225,114.85 134.4425,114.085 131.9675,114.085 C128.0525,114.085 125.3975,116.065 125.3975,118.99 C125.3975,120.88 126.3875,122.185 128.4575,123.085 C129.4475,123.49 129.8075,123.58 134.8025,124.705 C138.3575,125.47 140.5175,126.325 142.1375,127.45 C144.7025,129.34 145.8725,131.815 145.8725,135.19 C145.8725,138.385 144.8825,140.995 143.0375,142.84 C140.6525,145.135 137.0975,146.26 132.2825,146.26 C128.5925,146.26 124.9925,145.36 122.8325,143.92 C121.0325,142.705 119.7275,140.995 118.8725,138.79 C118.4675,137.755 118.2875,136.9 118.0175,135.055 Z M175.6175,109.72 L182.3225,109.72 C182.0525,111.385 181.9625,113.005 181.9625,115.84 L181.9625,131.815 C181.9625,141.13 176.4275,146.35 166.6175,146.35 C161.6225,146.35 157.4825,144.82 155.0075,142.12 C152.7125,139.645 151.6325,136.27 151.6325,131.77 L151.6325,115.885 C151.6325,113.095 151.5425,111.34 151.2725,109.72 L157.9775,109.72 C157.7075,111.25 157.6175,112.96 157.6175,115.885 L157.6175,131.77 C157.6175,137.845 160.7675,141.04 166.8425,141.04 C172.8725,141.04 175.9775,137.845 175.9775,131.725 L175.9775,115.885 C175.9775,113.005 175.8875,111.385 175.6175,109.72 Z M210.3125,145.54 L205.0025,145.54 C204.7775,144.1 204.0575,141.985 203.0225,139.465 L196.5425,124.03 C195.6875,122.005 195.2825,120.79 194.2475,117.145 C194.4275,119.53 194.6075,123.22 194.6075,124.21 L194.6075,138.97 C194.6075,142.075 194.6975,143.785 194.9675,145.54 L188.6675,145.54 C188.9375,143.74 189.0275,141.985 189.0275,138.97 L189.0275,116.38 C189.0275,113.455 188.9375,111.565 188.6675,109.72 L196.9025,109.72 C197.2175,111.295 197.8025,113.185 198.5675,115.075 L207.7025,137.395 L216.7925,115.075 C217.6925,112.87 218.0975,111.43 218.4125,109.72 L226.6925,109.72 C226.4225,111.88 226.3325,113.365 226.3325,116.38 L226.3325,138.97 C226.3325,142.255 226.4225,143.875 226.6925,145.54 L220.3925,145.54 C220.6625,143.695 220.7525,142.075 220.7525,138.97 L220.7525,124.03 C220.9325,120.115 221.0675,117.82 221.1125,117.145 C220.5275,119.575 219.6725,122.095 219.0425,123.715 L212.2925,139.555 C211.3925,141.67 210.5825,144.19 210.3125,145.54 Z" id="P--POSSUM" fill="#FFFFFF"></path>
            </g>
            <g id="Page-1" stroke="#000000" stroke-width="3.125">
                <path d="M268.622695,439.514361 L37.3773045,439.514361 C16.3516605,439.514361 0.108463639,423.285032 0.108463639,402.291352 L0.108463639,37.7086481 C0.108463639,16.7149684 16.3516605,0.485638525 37.3773045,0.485638525 L268.622695,0.485638525 C289.64834,0.485638525 305.891536,16.7149684 305.891536,37.7086481 L305.891536,402.291352 C305.891536,423.285032 289.64834,439.514361 268.622695,439.514361 Z M46.9299677,52.9789999 L46.9299677,220 L266.714609,220 L266.714609,52.9789999 L46.9299677,52.9789999 Z" id="Combined-Shape" fill="#FFFFFF"></path>
                <path d="M47.8840109,263.810573 L93.7514718,263.810573" id="Stroke-3"></path>
                <path d="M130.06627,263.810573 L175.93373,263.810573" id="Stroke-4"></path>
                <path d="M212.248528,263.810573 L258.115989,263.810573" id="Stroke-5"></path>
                <path d="M47.8840109,304.700441 L93.7514718,304.700441" id="Stroke-6"></path>
                <path d="M130.06627,304.700441 L175.93373,304.700441" id="Stroke-7"></path>
                <path d="M212.248528,304.700441 L258.115989,304.700441" id="Stroke-8"></path>
                <path d="M47.8840109,345.590308 L93.7514718,345.590308" id="Stroke-9"></path>
                <path d="M130.06627,345.590308 L175.93373,345.590308" id="Stroke-10"></path>
                <path d="M212.248528,345.590308 L258.115989,345.590308" id="Stroke-11"></path>
                <path d="M47.8840109,386.480176 L93.7514718,386.480176" id="Stroke-12"></path>
                <path d="M130.06627,386.480176 L175.93373,386.480176" id="Stroke-13"></path>
                <path d="M212.248528,386.480176 L258.115989,386.480176" id="Stroke-14"></path>
            </g>
        </g>
    </g>
</svg>